<?xml version="1.0" encoding="UTF-8"?>
<svg id="Livello_1" xmlns="http://www.w3.org/2000/svg" viewBox="0 0 192.72 132.33">
  <defs>
    <style>
      .cls-1 {
        fill: #bc6341;
      }

      .cls-2 {
        fill: #788973;
      }
    </style>
  </defs>
  <path class="cls-2" d="M114.53,74.94l.02-13.15c.35-6.23-2.05-10.81-6.56-15.03-13.51-12.64-26.69-25.62-40.07-38.4-2.14-2.05-4.45-4-6.93-5.61-3.44-2.24-6.58-1.83-9.48.95-15.85,15.22-31.65,30.49-47.53,45.68C1.38,51.87.1,54.87.09,58.33,0,80.69-.03,103.04.03,125.4c.01,4.71,2.24,6.7,7.02,6.75,7.58.07,15.16-.1,22.73.09,2.96.07,3.82-.85,3.78-3.81-.15-11.8-.2-23.6-.02-35.4.26-17.37,16.44-28.65,32.32-22.67,9.5,3.58,15.3,12.47,15.42,24.11.12,11.3.02,22.61-.05,33.91-.01,2.25.2,3.81,3.13,3.77,10.06-.14,20.12-.1,30.17-.13,0-19.03,0-38.06,0-57.08"/>
  <path class="cls-1" d="M114.53,132.02c0-19.03,0-38.06,0-57.08,0-1.47-.26-2.98.51-4.36,26.8-21.86,63.41-8.25,74.51,18.98,2.12,5.2,3.09,10.74,3.15,16.36.08,7.82-.09,15.64,0,23.46.03,2.28-.71,2.97-2.97,2.95-25.07-.16-50.13-.22-75.2-.31Z"/>
  <path class="cls-1" d="M168.38,24.26c.05,13.6-10.4,24.33-23.78,24.42-13.25.09-24.05-10.51-24.12-23.67C120.4,10.87,130.58.07,144.04,0c13.62-.07,24.3,10.57,24.35,24.26Z"/>
</svg>